<svg width="41" height="21" viewBox="0 0 41 21" fill="none" xmlns="http://www.w3.org/2000/svg">
<path d="M5.49103 15.1519C4.56637 15.1519 3.74303 14.9936 3.02103 14.6769C2.29903 14.3603 1.72903 13.9296 1.31103 13.3849C0.893032 12.8276 0.658699 12.2069 0.608032 11.5229H3.81903C3.85703 11.8903 4.02803 12.1879 4.33203 12.4159C4.63603 12.6439 5.0097 12.7579 5.45303 12.7579C5.85837 12.7579 6.1687 12.6819 6.38403 12.5299C6.61203 12.3653 6.72603 12.1563 6.72603 11.9029C6.72603 11.5989 6.5677 11.3773 6.25103 11.2379C5.93437 11.0859 5.42137 10.9213 4.71203 10.7439C3.95203 10.5666 3.3187 10.3829 2.81203 10.1929C2.30537 9.99028 1.86837 9.67994 1.50103 9.26194C1.1337 8.83127 0.950032 8.25494 0.950032 7.53294C0.950032 6.92494 1.1147 6.37394 1.44403 5.87994C1.78603 5.37327 2.28003 4.97427 2.92603 4.68294C3.5847 4.39161 4.3637 4.24594 5.26303 4.24594C6.59303 4.24594 7.63803 4.57527 8.39803 5.23394C9.1707 5.89261 9.61403 6.76661 9.72803 7.85594H6.72603C6.67537 7.48861 6.5107 7.19727 6.23203 6.98194C5.96603 6.76661 5.61137 6.65894 5.16803 6.65894C4.78803 6.65894 4.4967 6.73494 4.29403 6.88694C4.09137 7.02628 3.99003 7.22261 3.99003 7.47594C3.99003 7.77994 4.14837 8.00794 4.46503 8.15994C4.79437 8.31194 5.30103 8.46394 5.98503 8.61594C6.77037 8.81861 7.41003 9.02128 7.90403 9.22394C8.39803 9.41394 8.8287 9.73061 9.19603 10.1739C9.57603 10.6046 9.77237 11.1873 9.78503 11.9219C9.78503 12.5426 9.6077 13.0999 9.25303 13.5939C8.91103 14.0753 8.4107 14.4553 7.75203 14.7339C7.10603 15.0126 6.35237 15.1519 5.49103 15.1519Z" fill="#131313"/>
<path d="M22.6028 4.39794L15.9528 20.0349H12.4568L14.8888 14.6389L10.5758 4.39794H14.2048L16.6558 11.0289L19.0878 4.39794H22.6028Z" fill="#131313"/>
<path d="M23.1316 9.67994C23.1316 8.59061 23.3343 7.63427 23.7396 6.81094C24.1576 5.98761 24.7213 5.35427 25.4306 4.91094C26.14 4.46761 26.9316 4.24594 27.8056 4.24594C28.5023 4.24594 29.1356 4.39161 29.7056 4.68294C30.2883 4.97427 30.7443 5.36694 31.0736 5.86094V0.939941H34.3226V14.9999H31.0736V13.4799C30.7696 13.9866 30.3326 14.3919 29.7626 14.6959C29.2053 14.9999 28.553 15.1519 27.8056 15.1519C26.9316 15.1519 26.14 14.9303 25.4306 14.4869C24.7213 14.0309 24.1576 13.3913 23.7396 12.5679C23.3343 11.7319 23.1316 10.7693 23.1316 9.67994ZM31.0736 9.69894C31.0736 8.88827 30.8456 8.24861 30.3896 7.77994C29.9463 7.31128 29.4016 7.07694 28.7556 7.07694C28.1096 7.07694 27.5586 7.31128 27.1026 7.77994C26.6593 8.23594 26.4376 8.86928 26.4376 9.67994C26.4376 10.4906 26.6593 11.1366 27.1026 11.6179C27.5586 12.0866 28.1096 12.3209 28.7556 12.3209C29.4016 12.3209 29.9463 12.0866 30.3896 11.6179C30.8456 11.1493 31.0736 10.5096 31.0736 9.69894Z" fill="#131313"/>
<path d="M38.1931 15.1519C37.6231 15.1519 37.1545 14.9873 36.7871 14.6579C36.4325 14.3159 36.2551 13.8979 36.2551 13.4039C36.2551 12.8973 36.4325 12.4729 36.7871 12.1309C37.1545 11.7889 37.6231 11.6179 38.1931 11.6179C38.7505 11.6179 39.2065 11.7889 39.5611 12.1309C39.9285 12.4729 40.1121 12.8973 40.1121 13.4039C40.1121 13.8979 39.9285 14.3159 39.5611 14.6579C39.2065 14.9873 38.7505 15.1519 38.1931 15.1519Z" fill="#131313"/>
</svg>
